<svg width="25" height="24" viewBox="0 0 25 24" fill="none" xmlns="http://www.w3.org/2000/svg">
<path d="M14.9479 2C14.9479 0.89543 14.0525 0 12.9479 0C11.8433 0 10.9479 0.89543 10.9479 2H14.9479ZM10.9479 22C10.9479 23.1046 11.8433 24 12.9479 24C14.0525 24 14.9479 23.1046 14.9479 22H10.9479ZM2.89453 10.0001C1.78996 10.0001 0.894531 10.8955 0.894531 12.0001C0.894531 13.1046 1.78996 14.0001 2.89453 14.0001V10.0001ZM23.0007 14.0001C24.1053 14.0001 25.0007 13.1046 25.0007 12.0001C25.0007 10.8955 24.1053 10.0001 23.0007 10.0001V14.0001ZM10.9479 2V22H14.9479V2H10.9479ZM2.89453 14.0001H23.0007V10.0001H2.89453V14.0001Z" fill="black"/>
</svg>
