<svg width="74" height="74" viewBox="0 0 74 74" fill="none" xmlns="http://www.w3.org/2000/svg">
<path d="M62.6626 50.6998C66.1836 43.0436 54.2243 37.1582 46.6093 37.3534C53.8972 35.6613 67.9164 27.2511 61.6975 19.694C55.8701 12.6126 46.6066 22.1339 41.7398 28.9552C45.534 21.8816 48.5828 7.2076 37.5237 7.16111C27.5919 7.11936 29.5851 20.4174 32.188 29.0985C26.9688 22.7953 16.1322 15.3957 11.5472 22.5639C6.05718 31.147 19.0846 36.776 25.8632 37.1777C15.5556 38.9914 7.22185 44.4134 11.2035 50.8482C16.0506 58.6815 26.8758 50.9392 31.4617 45.1047C26.1119 54.08 25.0428 63.8012 33.6839 65.6975C42.3249 67.5939 43.2059 54.3838 42.5662 47.5416C47.8226 51.8204 58.7929 59.1143 62.6626 50.6998Z" fill="#FCAB48" stroke="black" stroke-width="4.21123" stroke-linecap="round" stroke-linejoin="round"/>
<path d="M35.7103 44.6259C31.0841 43.6107 28.326 39.2233 29.3683 34.9377C30.4107 30.652 34.9154 27.8586 39.5416 28.8738C44.1677 29.8891 46.9259 34.2764 45.8836 38.5621C44.8412 42.8477 40.3365 45.6411 35.7103 44.6259Z" fill="#FFCE4F" stroke="black" stroke-width="4.21123"/>
</svg>
