<svg width="46" height="45" viewBox="0 0 46 45" fill="none" xmlns="http://www.w3.org/2000/svg">
<path fill-rule="evenodd" clip-rule="evenodd" d="M22.6392 0C10.2154 0 0.13916 10.0725 0.13916 22.5C0.13916 34.9256 10.2154 45 22.6392 45C35.0648 45 45.1392 34.9256 45.1392 22.5C45.1392 10.0725 35.0648 0 22.6392 0ZM35.7154 32.9194V32.4788L33.6679 30.4688C33.4879 30.3319 33.3979 30.105 33.4354 29.8819V15.1181C33.3979 14.895 33.4879 14.6681 33.6679 14.5312L35.7642 12.5212V12.0806H28.5098L23.3385 24.9806L17.4548 12.0806H9.84416V12.5212L12.2967 15.4744C12.5367 15.69 12.6604 16.0088 12.6267 16.3312V27.9338C12.6979 28.3519 12.5667 28.7794 12.2723 29.085L9.51416 32.43V32.8706H17.3329V32.43L14.5748 29.085C14.2785 28.7794 14.1379 28.3556 14.196 27.9338V17.8987L21.0585 32.8706H21.8554L27.7485 17.8987V29.8331C27.7485 30.1519 27.7485 30.2119 27.5404 30.42L25.4217 32.4788V32.9194H35.7154Z" fill="white"/>
</svg>
