<svg width="417" height="367" viewBox="0 0 417 367" fill="none" xmlns="http://www.w3.org/2000/svg">
<path d="M49.357 45.5274C49.357 45.5274 7.8911 0.7632 -41.1486 17.2074C-87.1219 32.6233 -118.623 72.2939 -102.723 131.707C-145.123 158.707 -146.097 185.796 -138.123 220.208C-125.611 274.207 -61.1495 269.207 -61.1495 269.207C-61.1495 269.207 -64.6474 318.227 -27.1221 333.707C21.7993 353.889 69.2954 320.028 69.2954 320.028C69.2954 320.028 80.7283 365.827 136.714 366.756C198.953 367.789 219.741 319.152 219.741 319.152C219.741 319.152 268.107 349.991 314.734 331.873C361.362 313.756 359.303 265.778 359.303 265.778C359.303 265.778 411.083 258.294 415.774 212.294C421.421 156.902 364.774 142.294 364.774 142.294C364.774 142.294 368.504 76.9487 319.274 62.2939C275.919 49.3882 235.273 83.7939 235.273 83.7939C235.273 83.7939 232.611 15.0216 160.552 3.1345C69.5959 -11.8698 49.357 45.5274 49.357 45.5274Z" fill="white"/>
</svg>
